<svg xmlns="http://www.w3.org/2000/svg" xmlns:xlink="http://www.w3.org/1999/xlink" height="427.4" preserveAspectRatio="xMidYMid meet" version="1.0" viewBox="46.0 44.4 649.8 427.4" width="649.8" zoomAndPan="magnify"><g id="change1_1"><path color="#000" d="m272.78 592.2c-126.69 44.254-219.77 162.36-225.4 304.58-1.4131 35.71 2.811 70.345 11.843 103.04l1.0652-0.36194c-8.9124-32.219-12.977-66.388-11.4-101.64 0.34324-7.6754 0.96666-15.272 1.8246-22.799 25.972 4.179 52.398 6.8534 79.194 8.0102 2.4481 29.823 8.023 59.108 16.248 87.255l0.76931-0.26141c-8.1983-28.025-13.647-57.196-15.91-86.941 21.978 0.91334 44.209 0.79695 66.624-0.42558 14.992-0.8177 29.826-2.121 44.527-3.8749 4.3151 18.129 9.2749 36.127 14.829 53.842l0.44383-0.15081c-5.5463-17.68-10.498-35.66-14.769-53.763 46.222-5.5491 90.936-15.647 133.7-29.819l22.527 63.966-21.462-64.328c41.73-13.905 81.613-31.675 119.23-52.889 7.0435 15.803 13.67 32.121 19.791 48.822l0.44384-0.1508c-6.1322-16.726-12.767-33.074-19.791-48.921 30.284-17.108 59.11-36.434 86.254-57.758 14.011 22.374 26.14 46.496 36.002 71.863l0.82848-0.28151c-9.9122-25.478-22.02-49.731-35.975-72.268 18.372-14.48 35.985-29.876 52.751-46.11 24.17 27.429 43.769 58.84 57.669 93.083l1.0948-0.37199c-48.214-118.67-162.37-204.42-298.69-209.81-34.299-1.3573-67.592 2.4728-99.146 10.783-2.7018 0.64298-5.3751 1.3428-8.032 2.102-2.0556 0.49328-4.076 1.1078-6.0473 1.8237-0.15732 0.0566-0.30674 0.13198-0.46338 0.1904-1.4055 0.45813-2.8198 0.90732-4.2116 1.3981-0.2751 0.0967-0.54398 0.21282-0.81844 0.31105-1.8491 0.60993-3.708 1.2094-5.5431 1.8505zm11.199 2.0697c0.80553-0.2549 1.6088-0.50606 2.4168-0.75517l13.594 38.551c-20.051 6.4573-40.257 11.45-60.501 15.046 10.072-26.916 25.212-45.176 44.49-52.841zm7.7735-2.3772c0.49041-0.14231 0.98872-0.26372 1.48-0.40392 13.938-2.9358 29.706-0.87248 47.06 6.8821 6.1536 2.7498 12.332 6.1581 18.529 10.141-16.631 8.0276-33.901 15.149-51.798 21.231-0.79148 0.26894-1.5851 0.5104-2.3771 0.77477l-12.893-38.624zm-30.844 11.701c-10.361 10.587-18.761 25.47-24.915 44.111-12.854 2.1805-25.736 3.7907-38.582 4.8583 18.27-20.761 39.674-37.35 63.497-48.969zm56.229-17.225c18.435-2.6142 37.745-2.6141 57.714 0.25853 6.1541 0.88527 12.262 2.0484 18.332 3.4415-10.096 5.9891-20.478 11.636-31.13 16.881-7.7566-5.4216-15.521-9.9268-23.212-13.434-7.5406-3.4386-14.781-5.8048-21.703-7.1476zm-89.45 31.45c-13.272 10.022-25.502 21.824-36.479 35.234-6.094 0.42305-12.168 0.70816-18.247 0.88643 16.97-13.715 35.298-25.835 54.726-36.121zm128.23-37.96c13.909-1.2439 28.035-1.6774 42.339-1.1841 4.0735 0.14048 8.1369 0.36894 12.169 0.6509-3.9525 2.5903-7.9554 5.1347-12.002 7.6097-8.2163-2.1948-16.533-3.9449-24.904-5.202-5.927-0.89007-11.797-1.4879-17.601-1.8745zm-188.27 78.459c6.6564-0.10768 13.328-0.35679 20.007-0.75827-12.506 16.076-23.309 34.297-32.129 54.351-12.369-0.46257-24.666-1.3742-36.867-2.7214 14.508-18.61 30.939-35.67 48.988-50.871zm249.76-78.43c27.891 2.5255 54.693 8.4006 80.047 17.225-9.0132 7.3953-18.3 14.523-27.843 21.309-20.884-13.085-42.858-23.239-65.545-29.909 4.5041-2.8071 8.9569-5.6771 13.341-8.6255zm-223.97 77.322c6e-3 -8e-3 0.0239-3e-3 0.0295-0.0102 13.673-0.9971 27.376-2.6251 41.082-4.8827-4.9787 16.543-8.2961 35.815-9.7866 57.453-22.077 2.1836-44.037 2.9135-65.773 2.2489 9.4818-20.352 21.054-38.737 34.448-54.809zm205.74-65.684c23.495 6.0552 46.256 15.81 67.85 28.73-17.555 12.319-35.988 23.545-55.205 33.643-15.037-17.794-30.431-32.716-45.842-44.096 11.386-5.6707 22.461-11.771 33.197-18.277zm-161.33 60.228c21.232-3.6565 42.453-8.8492 63.531-15.646l19.331 54.853c-15.605 4.6387-31.568 8.5934-47.881 11.78-15.467 3.0219-30.926 5.2838-46.318 6.8599 1.8656-21.979 5.728-41.39 11.336-57.847zm125.12-40.501c15.903 10.892 31.813 25.628 47.341 43.455-27.122 14.134-55.81 25.934-85.891 35.125l-18.444-55.254c0.78253-0.26168 1.5653-0.49893 2.3476-0.76471 18.93-6.432 37.149-14.004 54.647-22.562zm-245.97 100.08c12.449 1.3112 25.008 2.1568 37.637 2.5588-10.227 23.746-17.669 50.016-21.95 78.286-19.827-1.0668-39.492-3.1486-58.934-6.1808 11.166-26.849 25.783-51.888 43.247-74.664zm382.47-113.52c24.363 8.6556 47.337 20.043 68.601 33.756-12.602 12.035-25.784 23.525-39.488 34.441-17.875-18.037-37.176-33.76-57.548-46.686 9.7366-6.8663 19.238-14.026 28.435-21.51zm-341.4 116.17c21.993 0.55416 44.224-0.27241 66.582-2.5896-1.5115 23.499-0.88408 49.739 2.0742 78.275-30.924 3.328-61.701 4.1557-92.117 2.6189 4.6691-28.349 12.655-54.627 23.461-78.305zm310.41-92.864c20.79 12.603 40.455 28.131 58.651 46.048-22.439 17.759-46.29 33.974-71.475 48.412-13.7-22.539-28.138-42.978-42.944-60.626 19.413-10.148 38.013-21.473 55.767-33.834zm-242.08 90.076c14.932-1.5982 29.922-3.82 44.935-6.753 16.981-3.3175 33.576-7.4503 49.814-12.306l25.31 71.866c-13.251 4.3155-26.74 8.1938-40.48 11.609-26.104 6.4887-52.281 11.098-78.335 13.943-2.7648-28.652-3.1211-54.935-1.2446-78.359zm184.82-55.473c15.059 17.42 29.745 37.756 43.653 60.286-33.135 18.929-68.537 34.821-105.95 47.189l-24.096-72.179c30.218-9.2785 59.091-21.136 86.394-35.296zm-338.64 133.22c19.69 2.9306 39.622 4.9154 59.713 5.8502-3.3789 23.493-4.5765 48.344-3.3151 74.265 0.19297 3.9651 0.45635 7.9067 0.76045 11.854-26.632-1.3038-52.918-4.1795-78.742-8.5268 3.5618-29.164 10.944-57.147 21.584-83.443zm497.35-156.19c23.972 15.685 45.696 34.375 64.695 55.48-16.515 16.263-33.884 31.667-52 46.185-15.52-24.677-33.247-47.275-52.706-67.112 13.879-10.948 27.233-22.488 40.011-34.553zm-435.73 162.11c30.601 1.3252 61.588 0.28048 92.726-3.2549 1.4504 13.555 3.4157 27.616 5.9364 42.143 2.513 14.483 5.5027 28.974 8.8984 43.381-13.818 1.6142-27.776 2.7948-41.86 3.563-23.231 1.267-46.254 1.3281-69.026 0.25172-0.2537-3.5792-0.49506-7.1738-0.65533-10.768-1.1737-26.319 0.24773-51.532 3.981-75.316zm394.27-126.38c19.709 19.611 37.652 42.029 53.296 66.614-26.917 21.5-55.508 40.987-85.599 58.228-12.191-27.289-25.562-53.018-39.755-76.496 25.352-14.455 49.422-30.606 72.058-48.347zm-300.66 123.02c25.453-2.9284 50.988-7.5079 76.517-13.854 14.462-3.5949 28.653-7.7233 42.591-12.293l28.867 81.945c-42.663 14.238-87.32 24.325-133.52 29.758-3.2625-13.97-6.1116-28.01-8.5152-42.059-2.57-15.022-4.5383-29.532-5.9343-43.497zm227.82-74.241c14.335 23.352 27.831 49.034 40.09 76.316-37.456 21.424-77.193 39.371-118.84 53.351l-27.495-82.378c37.464-12.463 72.973-28.383 106.25-47.29z" fill="#ccc" transform="translate(0 -527.95)"/></g></svg>