<svg xmlns="http://www.w3.org/2000/svg" xmlns:xlink="http://www.w3.org/1999/xlink" height="133.7" preserveAspectRatio="xMidYMid meet" version="1.0" viewBox="0.0 0.0 155.0 133.7" width="155" zoomAndPan="magnify"><g id="change1_1"><path d="M13.25,101.5H66.41a43.52,43.52,0,0,1-3.7,12.58,11.18,11.18,0,0,0-8.21,10.75v4.84a4,4,0,0,0,4,4h38a4,4,0,0,0,4-4v-4.84a11.18,11.18,0,0,0-8.21-10.75,43.52,43.52,0,0,1-3.7-12.58h53.16A13.26,13.26,0,0,0,155,88.25v-75A13.26,13.26,0,0,0,141.75,0H13.25A13.26,13.26,0,0,0,0,13.25v75A13.26,13.26,0,0,0,13.25,101.5ZM92.5,125.67h-30v-.84a3.16,3.16,0,0,1,3.16-3.16H89.34a3.16,3.16,0,0,1,3.16,3.16Zm-9-12H71.53a45.46,45.46,0,0,0,2.91-12.17h6.12A45.46,45.46,0,0,0,83.47,113.67ZM141.75,93.5H13.25A5.26,5.26,0,0,1,8,88.25V82H147v6.25A5.26,5.26,0,0,1,141.75,93.5ZM13.25,8h128.5A5.26,5.26,0,0,1,147,13.25V74H8V13.25A5.26,5.26,0,0,1,13.25,8Z" fill="inherit"/><path d="M80.58,83.33H74.42a4,4,0,0,0,0,8h6.16a4,4,0,0,0,0-8Z" fill="inherit"/></g></svg>